<svg width="402" height="85" viewBox="0 0 402 85" fill="none" xmlns="http://www.w3.org/2000/svg">
<g clip-path="url(#clip0_6_31)">
<path d="M359.46 1.0625H42.5397C19.633 1.0625 1.06349 19.6147 1.06349 42.5C1.06349 65.3853 19.633 83.9375 42.5397 83.9375H359.46C382.367 83.9375 400.937 65.3853 400.937 42.5C400.937 19.6147 382.367 1.0625 359.46 1.0625Z" fill="#131314"/>
<path d="M359.46 1.0625H42.5397C19.633 1.0625 1.06349 19.6147 1.06349 42.5C1.06349 65.3853 19.633 83.9375 42.5397 83.9375H359.46C382.367 83.9375 400.937 65.3853 400.937 42.5C400.937 19.6147 382.367 1.0625 359.46 1.0625Z" stroke="#8E918F"/>
<path d="M46.2935 22C34.4928 22 25 31.5687 25 43.399C25 52.8807 31.0963 60.8836 39.544 63.7107C40.5891 63.9282 40.981 63.2323 40.981 62.6669C40.981 62.1885 40.9374 60.4487 40.9374 58.7089C35.0153 59.9703 33.7961 56.1428 33.7961 56.1428C32.8381 53.6636 31.4446 53.0112 31.4446 53.0112C29.5287 51.7064 31.5753 51.7064 31.5753 51.7064C33.709 51.8369 34.8412 53.9246 34.8412 53.9246C36.7571 57.1866 39.8053 56.2733 41.0245 55.7078C41.1987 54.316 41.7648 53.3592 42.3744 52.8372C37.6716 52.3588 32.7075 50.4886 32.7075 42.2682C32.7075 39.9195 33.5348 38.0058 34.8847 36.527C34.667 36.0051 33.9267 33.7869 35.1024 30.8728C35.1024 30.8728 36.8878 30.3074 40.9374 33.091C42.6357 32.6125 44.4646 32.3951 46.2499 32.3951C48.0353 32.3951 49.8642 32.656 51.5624 33.091C55.6121 30.3074 57.3974 30.8728 57.3974 30.8728C58.5731 33.8304 57.8329 36.0051 57.6152 36.527C59.0086 38.0058 59.7924 39.9195 59.7924 42.2682C59.7924 50.4886 54.8283 52.3153 50.0819 52.8372C50.8657 53.4897 51.5189 54.7945 51.5189 56.7952C51.5189 59.6658 51.4753 61.971 51.4753 62.6669C51.4753 63.2323 51.8672 63.9282 52.9123 63.7107C61.4036 60.8836 67.4999 52.8807 67.4999 43.399C67.5434 31.5687 58.0071 22 46.2935 22Z" fill="white"/>
<path d="M98.9399 36.7627C98.0512 36.7627 97.2556 36.9235 96.5532 37.2451C95.8592 37.5667 95.2709 38.0322 94.7885 38.6416C94.3061 39.2425 93.9379 39.9746 93.684 40.8379C93.4301 41.6927 93.3032 42.6576 93.3032 43.7324C93.3032 45.1712 93.5063 46.4111 93.9125 47.4521C94.3188 48.4847 94.9366 49.2803 95.7661 49.8389C96.5955 50.389 97.645 50.6641 98.9145 50.6641C99.7016 50.6641 100.468 50.5879 101.212 50.4355C101.957 50.2832 102.727 50.0758 103.523 49.8135V52.4033C102.77 52.6995 102.008 52.9154 101.238 53.0508C100.468 53.1862 99.5789 53.2539 98.5717 53.2539C96.6759 53.2539 95.1017 52.8604 93.8491 52.0732C92.6049 51.2861 91.6739 50.1774 91.0561 48.7471C90.4467 47.3167 90.142 45.641 90.142 43.7197C90.142 42.3148 90.3367 41.0283 90.726 39.8604C91.1153 38.6924 91.6824 37.6852 92.4272 36.8389C93.172 35.984 94.0903 35.3281 95.1821 34.8711C96.2823 34.4056 97.5392 34.1729 98.9526 34.1729C99.8836 34.1729 100.798 34.2786 101.695 34.4902C102.6 34.6934 103.438 34.9854 104.208 35.3662L103.142 37.8799C102.499 37.5752 101.826 37.3128 101.123 37.0928C100.421 36.8727 99.6931 36.7627 98.9399 36.7627ZM120.166 45.9414C120.166 47.1094 120.014 48.1462 119.709 49.0518C119.404 49.9574 118.96 50.7233 118.376 51.3496C117.792 51.9674 117.089 52.4414 116.268 52.7715C115.448 53.0931 114.521 53.2539 113.488 53.2539C112.523 53.2539 111.639 53.0931 110.835 52.7715C110.031 52.4414 109.333 51.9674 108.74 51.3496C108.156 50.7233 107.703 49.9574 107.382 49.0518C107.06 48.1462 106.899 47.1094 106.899 45.9414C106.899 44.3926 107.166 43.0807 107.699 42.0059C108.241 40.9225 109.011 40.0973 110.01 39.5303C111.008 38.9632 112.198 38.6797 113.577 38.6797C114.872 38.6797 116.015 38.9632 117.005 39.5303C117.995 40.0973 118.769 40.9225 119.328 42.0059C119.887 43.0892 120.166 44.401 120.166 45.9414ZM109.972 45.9414C109.972 46.9655 110.094 47.8415 110.34 48.5693C110.594 49.2972 110.983 49.8558 111.508 50.2451C112.032 50.626 112.71 50.8164 113.539 50.8164C114.368 50.8164 115.045 50.626 115.57 50.2451C116.095 49.8558 116.48 49.2972 116.726 48.5693C116.971 47.8415 117.094 46.9655 117.094 45.9414C117.094 44.9173 116.971 44.0498 116.726 43.3389C116.48 42.6195 116.095 42.0736 115.57 41.7012C115.045 41.3203 114.364 41.1299 113.526 41.1299C112.291 41.1299 111.389 41.5446 110.822 42.374C110.255 43.2035 109.972 44.3926 109.972 45.9414ZM131.439 38.6797C133.022 38.6797 134.253 39.0902 135.133 39.9111C136.022 40.7236 136.466 42.0312 136.466 43.834V53H133.483V44.3926C133.483 43.3008 133.259 42.484 132.81 41.9424C132.361 41.3923 131.667 41.1172 130.728 41.1172C129.365 41.1172 128.417 41.5361 127.884 42.374C127.359 43.2119 127.097 44.4264 127.097 46.0176V53H124.114V38.9463H126.437L126.856 40.8506H127.021C127.326 40.3597 127.702 39.9577 128.151 39.6445C128.608 39.3229 129.116 39.0817 129.674 38.9209C130.241 38.7601 130.829 38.6797 131.439 38.6797ZM146.393 50.8418C146.783 50.8418 147.168 50.8079 147.549 50.7402C147.93 50.6641 148.277 50.5752 148.59 50.4736V52.7334C148.26 52.8773 147.832 53 147.307 53.1016C146.783 53.2031 146.237 53.2539 145.67 53.2539C144.874 53.2539 144.159 53.1227 143.524 52.8604C142.89 52.5895 142.386 52.1283 142.014 51.4766C141.641 50.8249 141.455 49.9235 141.455 48.7725V41.2188H139.538V39.8857L141.595 38.832L142.572 35.8232H144.451V38.9463H148.475V41.2188H144.451V48.7344C144.451 49.4453 144.629 49.9743 144.984 50.3213C145.34 50.6683 145.809 50.8418 146.393 50.8418ZM154.95 38.9463V53H151.966V38.9463H154.95ZM153.477 33.5635C153.934 33.5635 154.327 33.6862 154.658 33.9316C154.996 34.1771 155.165 34.6003 155.165 35.2012C155.165 35.7936 154.996 36.2168 154.658 36.4707C154.327 36.7161 153.934 36.8389 153.477 36.8389C153.003 36.8389 152.601 36.7161 152.271 36.4707C151.949 36.2168 151.788 35.7936 151.788 35.2012C151.788 34.6003 151.949 34.1771 152.271 33.9316C152.601 33.6862 153.003 33.5635 153.477 33.5635ZM167.073 38.6797C168.656 38.6797 169.887 39.0902 170.767 39.9111C171.656 40.7236 172.1 42.0312 172.1 43.834V53H169.117V44.3926C169.117 43.3008 168.893 42.484 168.444 41.9424C167.996 41.3923 167.302 41.1172 166.362 41.1172C165 41.1172 164.052 41.5361 163.518 42.374C162.994 43.2119 162.731 44.4264 162.731 46.0176V53H159.748V38.9463H162.071L162.49 40.8506H162.655C162.96 40.3597 163.336 39.9577 163.785 39.6445C164.242 39.3229 164.75 39.0817 165.308 38.9209C165.875 38.7601 166.464 38.6797 167.073 38.6797ZM189.048 38.9463V53H186.7L186.293 51.1084H186.128C185.832 51.5908 185.455 51.9928 184.998 52.3145C184.541 52.6276 184.034 52.8604 183.475 53.0127C182.916 53.1735 182.328 53.2539 181.71 53.2539C180.652 53.2539 179.747 53.0762 178.993 52.7207C178.249 52.3568 177.677 51.7982 177.28 51.0449C176.882 50.2917 176.683 49.3184 176.683 48.125V38.9463H179.679V47.5664C179.679 48.6582 179.899 49.4749 180.339 50.0166C180.788 50.5583 181.482 50.8291 182.421 50.8291C183.327 50.8291 184.046 50.6429 184.579 50.2705C185.113 49.8981 185.489 49.348 185.709 48.6201C185.938 47.8923 186.052 46.9993 186.052 45.9414V38.9463H189.048ZM199.445 38.6797C200.698 38.6797 201.773 38.9378 202.67 39.4541C203.567 39.9704 204.257 40.7025 204.739 41.6504C205.221 42.5983 205.463 43.7324 205.463 45.0527V46.6523H196.081C196.115 48.015 196.479 49.0645 197.173 49.8008C197.875 50.5371 198.857 50.9053 200.118 50.9053C201.015 50.9053 201.819 50.8206 202.53 50.6514C203.249 50.4736 203.99 50.2155 204.752 49.877V52.3018C204.049 52.6318 203.334 52.873 202.606 53.0254C201.878 53.1777 201.007 53.2539 199.991 53.2539C198.611 53.2539 197.397 52.9873 196.347 52.4541C195.306 51.9124 194.49 51.1084 193.897 50.042C193.313 48.9756 193.021 47.651 193.021 46.0684C193.021 44.4941 193.288 43.1569 193.821 42.0566C194.354 40.9564 195.103 40.1185 196.068 39.543C197.033 38.9674 198.159 38.6797 199.445 38.6797ZM199.445 40.9268C198.506 40.9268 197.744 41.2314 197.16 41.8408C196.584 42.4502 196.246 43.3431 196.144 44.5195H202.543C202.534 43.8171 202.416 43.195 202.187 42.6533C201.967 42.1117 201.629 41.6885 201.172 41.3838C200.723 41.0791 200.148 40.9268 199.445 40.9268ZM228.11 52.9873L226.333 46.4492C226.248 46.1276 226.147 45.7383 226.028 45.2812C225.91 44.8242 225.791 44.3545 225.673 43.8721C225.554 43.3812 225.444 42.9284 225.343 42.5137C225.249 42.099 225.177 41.7773 225.127 41.5488H225.025C224.983 41.7773 224.915 42.099 224.822 42.5137C224.729 42.9284 224.623 43.3812 224.505 43.8721C224.386 44.363 224.268 44.8411 224.149 45.3066C224.039 45.7721 223.938 46.1699 223.844 46.5L221.978 52.9873H218.703L214.767 38.9336H217.789L219.617 45.916C219.735 46.39 219.85 46.902 219.96 47.4521C220.078 48.0023 220.18 48.527 220.264 49.0264C220.349 49.5257 220.413 49.9362 220.455 50.2578H220.556C220.59 50.0293 220.637 49.7415 220.696 49.3945C220.755 49.0391 220.823 48.6709 220.899 48.29C220.975 47.9007 221.052 47.5368 221.128 47.1982C221.204 46.8512 221.276 46.5719 221.344 46.3604L223.502 38.9336H226.764L228.834 46.3604C228.927 46.682 229.028 47.0882 229.138 47.5791C229.248 48.0615 229.346 48.5482 229.43 49.0391C229.524 49.5215 229.583 49.9235 229.608 50.2451H229.71C229.744 49.9574 229.803 49.568 229.887 49.0771C229.981 48.5778 230.086 48.0488 230.205 47.4902C230.323 46.9232 230.446 46.3984 230.573 45.916L232.439 38.9336H235.41L231.449 52.9873H228.11ZM241.325 38.9463V53H238.342V38.9463H241.325ZM239.853 33.5635C240.31 33.5635 240.703 33.6862 241.033 33.9316C241.372 34.1771 241.541 34.6003 241.541 35.2012C241.541 35.7936 241.372 36.2168 241.033 36.4707C240.703 36.7161 240.31 36.8389 239.853 36.8389C239.379 36.8389 238.977 36.7161 238.647 36.4707C238.325 36.2168 238.164 35.7936 238.164 35.2012C238.164 34.6003 238.325 34.1771 238.647 33.9316C238.977 33.6862 239.379 33.5635 239.853 33.5635ZM251.354 50.8418C251.744 50.8418 252.129 50.8079 252.509 50.7402C252.89 50.6641 253.237 50.5752 253.551 50.4736V52.7334C253.22 52.8773 252.793 53 252.268 53.1016C251.744 53.2031 251.198 53.2539 250.631 53.2539C249.835 53.2539 249.12 53.1227 248.485 52.8604C247.85 52.5895 247.347 52.1283 246.974 51.4766C246.602 50.8249 246.416 49.9235 246.416 48.7725V41.2188H244.499V39.8857L246.555 38.832L247.533 35.8232H249.412V38.9463H253.436V41.2188H249.412V48.7344C249.412 49.4453 249.59 49.9743 249.945 50.3213C250.301 50.6683 250.77 50.8418 251.354 50.8418ZM259.91 33.2461V38.21C259.91 38.7262 259.893 39.2298 259.86 39.7207C259.834 40.2116 259.805 40.5924 259.771 40.8633H259.936C260.232 40.3724 260.596 39.9704 261.028 39.6572C261.459 39.3356 261.942 39.0944 262.475 38.9336C263.016 38.7728 263.592 38.6924 264.201 38.6924C265.276 38.6924 266.19 38.8743 266.944 39.2383C267.697 39.5938 268.272 40.1481 268.67 40.9014C269.076 41.6546 269.279 42.6322 269.279 43.834V53H266.296V44.3926C266.296 43.3008 266.072 42.484 265.623 41.9424C265.175 41.3923 264.481 41.1172 263.541 41.1172C262.636 41.1172 261.916 41.3076 261.383 41.6885C260.858 42.0609 260.482 42.6152 260.253 43.3516C260.025 44.0794 259.91 44.9681 259.91 46.0176V53H256.927V33.2461H259.91ZM289.045 42.9199H295.977V52.2383C295.003 52.5599 293.996 52.8096 292.955 52.9873C291.914 53.165 290.746 53.2539 289.451 53.2539C287.564 53.2539 285.964 52.8815 284.652 52.1367C283.349 51.3835 282.359 50.2959 281.682 48.874C281.005 47.4437 280.666 45.7214 280.666 43.707C280.666 41.7689 281.043 40.0889 281.796 38.667C282.549 37.2367 283.645 36.1322 285.084 35.3535C286.523 34.5664 288.266 34.1729 290.315 34.1729C291.322 34.1729 292.295 34.2744 293.235 34.4775C294.182 34.6722 295.05 34.943 295.837 35.29L294.771 37.8037C294.144 37.5075 293.442 37.2578 292.663 37.0547C291.885 36.8516 291.076 36.75 290.238 36.75C288.91 36.75 287.763 37.0378 286.798 37.6133C285.842 38.1888 285.105 39.0013 284.589 40.0508C284.073 41.0918 283.815 42.3232 283.815 43.7451C283.815 45.1247 284.022 46.335 284.437 47.376C284.851 48.417 285.499 49.2295 286.379 49.8135C287.268 50.389 288.415 50.6768 289.819 50.6768C290.522 50.6768 291.119 50.6387 291.61 50.5625C292.1 50.4863 292.553 50.4017 292.968 50.3086V45.5225H289.045V42.9199ZM303.619 38.9463V53H300.635V38.9463H303.619ZM302.146 33.5635C302.603 33.5635 302.997 33.6862 303.327 33.9316C303.665 34.1771 303.835 34.6003 303.835 35.2012C303.835 35.7936 303.665 36.2168 303.327 36.4707C302.997 36.7161 302.603 36.8389 302.146 36.8389C301.672 36.8389 301.27 36.7161 300.94 36.4707C300.618 36.2168 300.458 35.7936 300.458 35.2012C300.458 34.6003 300.618 34.1771 300.94 33.9316C301.27 33.6862 301.672 33.5635 302.146 33.5635ZM313.648 50.8418C314.037 50.8418 314.422 50.8079 314.803 50.7402C315.184 50.6641 315.531 50.5752 315.844 50.4736V52.7334C315.514 52.8773 315.086 53 314.562 53.1016C314.037 53.2031 313.491 53.2539 312.924 53.2539C312.128 53.2539 311.413 53.1227 310.778 52.8604C310.144 52.5895 309.64 52.1283 309.268 51.4766C308.895 50.8249 308.709 49.9235 308.709 48.7725V41.2188H306.792V39.8857L308.849 38.832L309.826 35.8232H311.705V38.9463H315.73V41.2188H311.705V48.7344C311.705 49.4453 311.883 49.9743 312.238 50.3213C312.594 50.6683 313.064 50.8418 313.648 50.8418ZM334.163 53H331.129V44.6211H322.572V53H319.525V34.4395H322.572V42.0312H331.129V34.4395H334.163V53ZM351.542 38.9463V53H349.193L348.787 51.1084H348.622C348.326 51.5908 347.949 51.9928 347.492 52.3145C347.035 52.6276 346.527 52.8604 345.969 53.0127C345.41 53.1735 344.822 53.2539 344.204 53.2539C343.146 53.2539 342.241 53.0762 341.487 52.7207C340.743 52.3568 340.171 51.7982 339.774 51.0449C339.376 50.2917 339.177 49.3184 339.177 48.125V38.9463H342.173V47.5664C342.173 48.6582 342.393 49.4749 342.833 50.0166C343.282 50.5583 343.976 50.8291 344.915 50.8291C345.821 50.8291 346.54 50.6429 347.073 50.2705C347.607 49.8981 347.983 49.348 348.203 48.6201C348.432 47.8923 348.546 46.9993 348.546 45.9414V38.9463H351.542ZM359.324 33.2461V38.0068C359.324 38.557 359.307 39.0986 359.273 39.6318C359.248 40.1566 359.222 40.5671 359.197 40.8633H359.324C359.705 40.2539 360.234 39.7419 360.911 39.3271C361.596 38.904 362.472 38.6924 363.539 38.6924C365.206 38.6924 366.547 39.306 367.563 40.5332C368.579 41.752 369.086 43.5589 369.086 45.9541C369.086 47.5452 368.854 48.8825 368.388 49.9658C367.923 51.0492 367.267 51.8701 366.42 52.4287C365.583 52.9788 364.597 53.2539 363.462 53.2539C362.396 53.2539 361.533 53.0592 360.873 52.6699C360.221 52.2721 359.709 51.8109 359.336 51.2861H359.121L358.575 53H356.34V33.2461H359.324ZM362.752 41.1172C361.905 41.1172 361.232 41.2865 360.733 41.625C360.242 41.9635 359.887 42.4714 359.667 43.1484C359.447 43.8171 359.332 44.6676 359.324 45.7002V45.9668C359.324 47.5326 359.569 48.7301 360.06 49.5596C360.559 50.389 361.465 50.8037 362.777 50.8037C363.818 50.8037 364.618 50.3848 365.176 49.5469C365.735 48.7005 366.014 47.4902 366.014 45.916C366.014 44.3249 365.735 43.1273 365.176 42.3232C364.626 41.5192 363.818 41.1172 362.752 41.1172Z" fill="white"/>
</g>
<defs>
<clipPath id="clip0_6_31">
<rect width="402" height="85" fill="white"/>
</clipPath>
</defs>
</svg>
